<mxfile host="app.diagrams.net" agent="Mozilla/5.0 (X11; Linux x86_64; rv:128.0) Gecko/20100101 Firefox/128.0" version="28.2.7">
  <diagram name="Page-1" id="RuWYZvteaPz6JKtWf21M">
    <mxGraphModel dx="2887" dy="2363" grid="1" gridSize="10" guides="1" tooltips="1" connect="1" arrows="1" fold="1" page="1" pageScale="1" pageWidth="850" pageHeight="1100" math="0" shadow="0">
      <root>
        <mxCell id="0" />
        <mxCell id="1" parent="0" />
        <mxCell id="Z9YpBMqZ3HHWRUmpGTiV-1" value="register file" style="whiteSpace=wrap;html=1;aspect=fixed;" parent="1" vertex="1">
          <mxGeometry x="300" y="272.5" width="160" height="160" as="geometry" />
        </mxCell>
        <mxCell id="kkJzJGfQuStPFGFwi3gG-2" style="edgeStyle=orthogonalEdgeStyle;rounded=0;orthogonalLoop=1;jettySize=auto;html=1;exitX=1;exitY=0.5;exitDx=0;exitDy=0;entryX=0;entryY=0.5;entryDx=0;entryDy=0;" parent="1" source="Z9YpBMqZ3HHWRUmpGTiV-2" target="Z9YpBMqZ3HHWRUmpGTiV-24" edge="1">
          <mxGeometry relative="1" as="geometry" />
        </mxCell>
        <mxCell id="kkJzJGfQuStPFGFwi3gG-3" value="Read Address" style="edgeLabel;html=1;align=center;verticalAlign=middle;resizable=0;points=[];" parent="kkJzJGfQuStPFGFwi3gG-2" vertex="1" connectable="0">
          <mxGeometry x="-0.0918" y="-1" relative="1" as="geometry">
            <mxPoint as="offset" />
          </mxGeometry>
        </mxCell>
        <mxCell id="Z9YpBMqZ3HHWRUmpGTiV-2" value="PC Counter" style="whiteSpace=wrap;html=1;aspect=fixed;" parent="1" vertex="1">
          <mxGeometry x="-280" y="282.5" width="150" height="150" as="geometry" />
        </mxCell>
        <mxCell id="Z9YpBMqZ3HHWRUmpGTiV-4" value="Memory" style="whiteSpace=wrap;html=1;aspect=fixed;" parent="1" vertex="1">
          <mxGeometry x="865" y="260" width="160" height="160" as="geometry" />
        </mxCell>
        <mxCell id="Z9YpBMqZ3HHWRUmpGTiV-10" style="edgeStyle=orthogonalEdgeStyle;rounded=0;orthogonalLoop=1;jettySize=auto;html=1;entryX=-0.003;entryY=0.342;entryDx=0;entryDy=0;exitX=0.25;exitY=0;exitDx=0;exitDy=0;entryPerimeter=0;" parent="1" source="Z9YpBMqZ3HHWRUmpGTiV-6" target="Z9YpBMqZ3HHWRUmpGTiV-4" edge="1">
          <mxGeometry relative="1" as="geometry" />
        </mxCell>
        <mxCell id="Z9YpBMqZ3HHWRUmpGTiV-11" value="addr" style="edgeLabel;html=1;align=center;verticalAlign=middle;resizable=0;points=[];" parent="Z9YpBMqZ3HHWRUmpGTiV-10" vertex="1" connectable="0">
          <mxGeometry x="-0.025" y="-3" relative="1" as="geometry">
            <mxPoint x="47" y="-3" as="offset" />
          </mxGeometry>
        </mxCell>
        <mxCell id="Z9YpBMqZ3HHWRUmpGTiV-6" value="ALU" style="shape=loopLimit;whiteSpace=wrap;html=1;rotation=90;" parent="1" vertex="1">
          <mxGeometry x="630" y="315" width="100" height="50" as="geometry" />
        </mxCell>
        <mxCell id="Z9YpBMqZ3HHWRUmpGTiV-7" value="Immediate Generation" style="rounded=1;whiteSpace=wrap;html=1;" parent="1" vertex="1">
          <mxGeometry x="375" y="550" width="120" height="60" as="geometry" />
        </mxCell>
        <mxCell id="Z9YpBMqZ3HHWRUmpGTiV-13" value="MUX" style="verticalLabelPosition=middle;verticalAlign=middle;html=1;shape=trapezoid;perimeter=trapezoidPerimeter;whiteSpace=wrap;size=0.23;arcSize=10;flipV=1;labelPosition=center;align=center;rotation=-90;" parent="1" vertex="1">
          <mxGeometry x="1050" y="340" width="100" height="60" as="geometry" />
        </mxCell>
        <mxCell id="Z9YpBMqZ3HHWRUmpGTiV-20" value="" style="endArrow=classic;html=1;rounded=0;exitX=0.998;exitY=0.526;exitDx=0;exitDy=0;exitPerimeter=0;entryX=0.75;entryY=0;entryDx=0;entryDy=0;" parent="1" source="Z9YpBMqZ3HHWRUmpGTiV-4" target="Z9YpBMqZ3HHWRUmpGTiV-13" edge="1">
          <mxGeometry width="50" height="50" relative="1" as="geometry">
            <mxPoint x="400" y="480" as="sourcePoint" />
            <mxPoint x="1050" y="353" as="targetPoint" />
          </mxGeometry>
        </mxCell>
        <mxCell id="Z9YpBMqZ3HHWRUmpGTiV-22" value="" style="endArrow=classic;html=1;rounded=0;" parent="1" source="kkJzJGfQuStPFGFwi3gG-21" target="Z9YpBMqZ3HHWRUmpGTiV-13" edge="1">
          <mxGeometry width="50" height="50" relative="1" as="geometry">
            <mxPoint x="850" y="210" as="sourcePoint" />
            <mxPoint x="1110" y="210" as="targetPoint" />
            <Array as="points">
              <mxPoint x="1100" y="180" />
            </Array>
          </mxGeometry>
        </mxCell>
        <mxCell id="Z9YpBMqZ3HHWRUmpGTiV-23" value="Mem to reg" style="edgeLabel;html=1;align=center;verticalAlign=middle;resizable=0;points=[];" parent="Z9YpBMqZ3HHWRUmpGTiV-22" vertex="1" connectable="0">
          <mxGeometry x="0.5885" y="1" relative="1" as="geometry">
            <mxPoint as="offset" />
          </mxGeometry>
        </mxCell>
        <mxCell id="Z9YpBMqZ3HHWRUmpGTiV-24" value="Instruction memory" style="whiteSpace=wrap;html=1;aspect=fixed;" parent="1" vertex="1">
          <mxGeometry x="-20" y="282.5" width="150" height="150" as="geometry" />
        </mxCell>
        <mxCell id="Z9YpBMqZ3HHWRUmpGTiV-25" value="" style="endArrow=classic;html=1;rounded=0;exitX=1;exitY=0.25;exitDx=0;exitDy=0;entryX=0;entryY=0.25;entryDx=0;entryDy=0;" parent="1" source="Z9YpBMqZ3HHWRUmpGTiV-24" target="Z9YpBMqZ3HHWRUmpGTiV-1" edge="1">
          <mxGeometry width="50" height="50" relative="1" as="geometry">
            <mxPoint x="400" y="480" as="sourcePoint" />
            <mxPoint x="450" y="430" as="targetPoint" />
          </mxGeometry>
        </mxCell>
        <mxCell id="Z9YpBMqZ3HHWRUmpGTiV-26" value="instr 19-15 rs1" style="edgeLabel;html=1;align=center;verticalAlign=middle;resizable=0;points=[];" parent="Z9YpBMqZ3HHWRUmpGTiV-25" vertex="1" connectable="0">
          <mxGeometry x="-0.3001" relative="1" as="geometry">
            <mxPoint as="offset" />
          </mxGeometry>
        </mxCell>
        <mxCell id="Z9YpBMqZ3HHWRUmpGTiV-27" value="" style="endArrow=classic;html=1;rounded=0;exitX=1;exitY=0.5;exitDx=0;exitDy=0;entryX=0;entryY=0.5;entryDx=0;entryDy=0;" parent="1" source="Z9YpBMqZ3HHWRUmpGTiV-24" target="Z9YpBMqZ3HHWRUmpGTiV-1" edge="1">
          <mxGeometry width="50" height="50" relative="1" as="geometry">
            <mxPoint x="400" y="480" as="sourcePoint" />
            <mxPoint x="450" y="430" as="targetPoint" />
          </mxGeometry>
        </mxCell>
        <mxCell id="kkJzJGfQuStPFGFwi3gG-39" value="instr 24-20 rs2" style="edgeLabel;html=1;align=center;verticalAlign=middle;resizable=0;points=[];" parent="Z9YpBMqZ3HHWRUmpGTiV-27" vertex="1" connectable="0">
          <mxGeometry x="-0.2098" y="-1" relative="1" as="geometry">
            <mxPoint as="offset" />
          </mxGeometry>
        </mxCell>
        <mxCell id="kkJzJGfQuStPFGFwi3gG-1" value="" style="endArrow=classic;html=1;rounded=0;exitX=0.5;exitY=0;exitDx=0;exitDy=0;" parent="1" source="kkJzJGfQuStPFGFwi3gG-10" edge="1">
          <mxGeometry width="50" height="50" relative="1" as="geometry">
            <mxPoint x="100" y="-40" as="sourcePoint" />
            <mxPoint x="930" y="-165" as="targetPoint" />
          </mxGeometry>
        </mxCell>
        <mxCell id="kkJzJGfQuStPFGFwi3gG-4" value="" style="endArrow=classic;html=1;rounded=0;entryX=0.75;entryY=1;entryDx=0;entryDy=0;" parent="1" target="kkJzJGfQuStPFGFwi3gG-10" edge="1">
          <mxGeometry width="50" height="50" relative="1" as="geometry">
            <mxPoint x="-20" y="-140" as="sourcePoint" />
            <mxPoint x="40" y="-10" as="targetPoint" />
          </mxGeometry>
        </mxCell>
        <mxCell id="kkJzJGfQuStPFGFwi3gG-7" value="Four" style="edgeLabel;html=1;align=center;verticalAlign=middle;resizable=0;points=[];" parent="kkJzJGfQuStPFGFwi3gG-4" vertex="1" connectable="0">
          <mxGeometry x="-0.2167" y="-5" relative="1" as="geometry">
            <mxPoint as="offset" />
          </mxGeometry>
        </mxCell>
        <mxCell id="kkJzJGfQuStPFGFwi3gG-5" value="" style="endArrow=classic;html=1;rounded=0;entryX=0.25;entryY=1;entryDx=0;entryDy=0;" parent="1" target="kkJzJGfQuStPFGFwi3gG-10" edge="1">
          <mxGeometry width="50" height="50" relative="1" as="geometry">
            <mxPoint x="-90" y="360" as="sourcePoint" />
            <mxPoint x="40" y="-70" as="targetPoint" />
            <Array as="points">
              <mxPoint x="-90" y="-190" />
            </Array>
          </mxGeometry>
        </mxCell>
        <mxCell id="kkJzJGfQuStPFGFwi3gG-10" value="Add" style="shape=loopLimit;whiteSpace=wrap;html=1;rotation=90;" parent="1" vertex="1">
          <mxGeometry x="100" y="-180" width="100" height="30" as="geometry" />
        </mxCell>
        <mxCell id="kkJzJGfQuStPFGFwi3gG-11" value="MUX" style="shape=trapezoid;perimeter=trapezoidPerimeter;whiteSpace=wrap;html=1;fixedSize=1;rotation=90;" parent="1" vertex="1">
          <mxGeometry x="892.5" y="-150" width="120" height="40" as="geometry" />
        </mxCell>
        <mxCell id="kkJzJGfQuStPFGFwi3gG-12" value="" style="endArrow=classic;html=1;rounded=0;entryX=0.25;entryY=1;entryDx=0;entryDy=0;" parent="1" target="wUC3MZ6UGow6dpSmKzoz-33" edge="1">
          <mxGeometry width="50" height="50" relative="1" as="geometry">
            <mxPoint x="-90" y="-90" as="sourcePoint" />
            <mxPoint x="540" y="70" as="targetPoint" />
          </mxGeometry>
        </mxCell>
        <mxCell id="kkJzJGfQuStPFGFwi3gG-14" value="ADD" style="shape=loopLimit;whiteSpace=wrap;html=1;rotation=90;" parent="1" vertex="1">
          <mxGeometry x="590" y="-80" width="100" height="40" as="geometry" />
        </mxCell>
        <mxCell id="kkJzJGfQuStPFGFwi3gG-15" value="" style="endArrow=classic;html=1;rounded=0;exitX=0.5;exitY=0;exitDx=0;exitDy=0;entryX=0.75;entryY=1;entryDx=0;entryDy=0;" parent="1" source="kkJzJGfQuStPFGFwi3gG-14" target="kkJzJGfQuStPFGFwi3gG-11" edge="1">
          <mxGeometry width="50" height="50" relative="1" as="geometry">
            <mxPoint x="230" y="160" as="sourcePoint" />
            <mxPoint x="800" y="10" as="targetPoint" />
            <Array as="points">
              <mxPoint x="680" y="-60" />
              <mxPoint x="680" y="-100" />
            </Array>
          </mxGeometry>
        </mxCell>
        <mxCell id="kkJzJGfQuStPFGFwi3gG-16" value="" style="endArrow=classic;html=1;rounded=0;entryX=-0.018;entryY=0.42;entryDx=0;entryDy=0;entryPerimeter=0;" parent="1" edge="1" target="Z9YpBMqZ3HHWRUmpGTiV-2">
          <mxGeometry width="50" height="50" relative="1" as="geometry">
            <mxPoint x="970" y="-128" as="sourcePoint" />
            <mxPoint x="-260" y="249.5" as="targetPoint" />
            <Array as="points">
              <mxPoint x="1010" y="-128" />
              <mxPoint x="1010" y="-258" />
              <mxPoint x="-350" y="-258" />
              <mxPoint x="-350" y="350" />
            </Array>
          </mxGeometry>
        </mxCell>
        <mxCell id="kkJzJGfQuStPFGFwi3gG-17" value="Shift left 2" style="ellipse;whiteSpace=wrap;html=1;aspect=fixed;" parent="1" vertex="1">
          <mxGeometry x="520" y="-15" width="60" height="60" as="geometry" />
        </mxCell>
        <mxCell id="kkJzJGfQuStPFGFwi3gG-18" value="" style="endArrow=classic;html=1;rounded=0;exitX=1;exitY=0.5;exitDx=0;exitDy=0;entryX=0.75;entryY=1;entryDx=0;entryDy=0;" parent="1" source="kkJzJGfQuStPFGFwi3gG-17" target="kkJzJGfQuStPFGFwi3gG-14" edge="1">
          <mxGeometry width="50" height="50" relative="1" as="geometry">
            <mxPoint x="230" y="160" as="sourcePoint" />
            <mxPoint x="280" y="110" as="targetPoint" />
            <Array as="points">
              <mxPoint x="600" y="15" />
              <mxPoint x="600" y="-35" />
            </Array>
          </mxGeometry>
        </mxCell>
        <mxCell id="kkJzJGfQuStPFGFwi3gG-20" value="" style="endArrow=classic;html=1;rounded=0;exitX=1;exitY=0.5;exitDx=0;exitDy=0;exitPerimeter=0;entryX=0.673;entryY=0.761;entryDx=0;entryDy=0;entryPerimeter=0;" parent="1" source="kkJzJGfQuStPFGFwi3gG-19" target="wUC3MZ6UGow6dpSmKzoz-11" edge="1">
          <mxGeometry width="50" height="50" relative="1" as="geometry">
            <mxPoint x="780" y="140.2" as="sourcePoint" />
            <mxPoint x="819" y="92" as="targetPoint" />
            <Array as="points" />
          </mxGeometry>
        </mxCell>
        <mxCell id="kkJzJGfQuStPFGFwi3gG-21" value="Control Unit" style="ellipse;whiteSpace=wrap;html=1;aspect=fixed;" parent="1" vertex="1">
          <mxGeometry x="190" y="130" width="100" height="100" as="geometry" />
        </mxCell>
        <mxCell id="kkJzJGfQuStPFGFwi3gG-22" value="" style="endArrow=classic;html=1;rounded=0;exitX=1;exitY=1;exitDx=0;exitDy=0;entryX=0.363;entryY=-0.009;entryDx=0;entryDy=0;entryPerimeter=0;" parent="1" source="kkJzJGfQuStPFGFwi3gG-21" target="Z9YpBMqZ3HHWRUmpGTiV-1" edge="1">
          <mxGeometry width="50" height="50" relative="1" as="geometry">
            <mxPoint x="230" y="160" as="sourcePoint" />
            <mxPoint x="430" y="195" as="targetPoint" />
            <Array as="points">
              <mxPoint x="360" y="215" />
            </Array>
          </mxGeometry>
        </mxCell>
        <mxCell id="kkJzJGfQuStPFGFwi3gG-25" value="RegWrite" style="edgeLabel;html=1;align=center;verticalAlign=middle;resizable=0;points=[];" parent="kkJzJGfQuStPFGFwi3gG-22" vertex="1" connectable="0">
          <mxGeometry x="0.7391" y="3" relative="1" as="geometry">
            <mxPoint as="offset" />
          </mxGeometry>
        </mxCell>
        <mxCell id="kkJzJGfQuStPFGFwi3gG-28" value="MUX" style="shape=trapezoid;perimeter=trapezoidPerimeter;whiteSpace=wrap;html=1;fixedSize=1;rotation=89;" parent="1" vertex="1">
          <mxGeometry x="570" y="390" width="82.5" height="25" as="geometry" />
        </mxCell>
        <mxCell id="kkJzJGfQuStPFGFwi3gG-29" value="" style="endArrow=classic;html=1;rounded=0;exitX=1;exitY=0.25;exitDx=0;exitDy=0;entryX=0.25;entryY=1;entryDx=0;entryDy=0;" parent="1" source="Z9YpBMqZ3HHWRUmpGTiV-1" target="Z9YpBMqZ3HHWRUmpGTiV-6" edge="1">
          <mxGeometry width="50" height="50" relative="1" as="geometry">
            <mxPoint x="450" y="350" as="sourcePoint" />
            <mxPoint x="500" y="300" as="targetPoint" />
          </mxGeometry>
        </mxCell>
        <mxCell id="kkJzJGfQuStPFGFwi3gG-32" value="Read Data 1" style="edgeLabel;html=1;align=center;verticalAlign=middle;resizable=0;points=[];" parent="kkJzJGfQuStPFGFwi3gG-29" vertex="1" connectable="0">
          <mxGeometry x="-0.0269" y="-2" relative="1" as="geometry">
            <mxPoint as="offset" />
          </mxGeometry>
        </mxCell>
        <mxCell id="kkJzJGfQuStPFGFwi3gG-34" value="" style="endArrow=classic;html=1;rounded=0;exitX=0.999;exitY=0.687;exitDx=0;exitDy=0;exitPerimeter=0;entryX=0.25;entryY=1;entryDx=0;entryDy=0;" parent="1" source="Z9YpBMqZ3HHWRUmpGTiV-1" target="kkJzJGfQuStPFGFwi3gG-28" edge="1">
          <mxGeometry width="50" height="50" relative="1" as="geometry">
            <mxPoint x="450" y="350" as="sourcePoint" />
            <mxPoint x="500" y="300" as="targetPoint" />
          </mxGeometry>
        </mxCell>
        <mxCell id="kkJzJGfQuStPFGFwi3gG-35" value="Read data 2&amp;nbsp;" style="edgeLabel;html=1;align=center;verticalAlign=middle;resizable=0;points=[];" parent="kkJzJGfQuStPFGFwi3gG-34" vertex="1" connectable="0">
          <mxGeometry x="-0.3094" relative="1" as="geometry">
            <mxPoint as="offset" />
          </mxGeometry>
        </mxCell>
        <mxCell id="kkJzJGfQuStPFGFwi3gG-40" value="" style="endArrow=classic;html=1;rounded=0;exitX=1;exitY=0.75;exitDx=0;exitDy=0;entryX=-0.018;entryY=0.715;entryDx=0;entryDy=0;entryPerimeter=0;" parent="1" source="Z9YpBMqZ3HHWRUmpGTiV-24" target="Z9YpBMqZ3HHWRUmpGTiV-1" edge="1">
          <mxGeometry width="50" height="50" relative="1" as="geometry">
            <mxPoint x="230" y="410" as="sourcePoint" />
            <mxPoint x="280" y="360" as="targetPoint" />
          </mxGeometry>
        </mxCell>
        <mxCell id="kkJzJGfQuStPFGFwi3gG-41" value="instr 11-7 write addr" style="edgeLabel;html=1;align=center;verticalAlign=middle;resizable=0;points=[];" parent="kkJzJGfQuStPFGFwi3gG-40" vertex="1" connectable="0">
          <mxGeometry x="0.0928" relative="1" as="geometry">
            <mxPoint as="offset" />
          </mxGeometry>
        </mxCell>
        <mxCell id="kkJzJGfQuStPFGFwi3gG-42" value="" style="endArrow=classic;html=1;rounded=0;exitX=0.5;exitY=1;exitDx=0;exitDy=0;entryX=0;entryY=0.891;entryDx=0;entryDy=0;entryPerimeter=0;" parent="1" source="Z9YpBMqZ3HHWRUmpGTiV-13" target="Z9YpBMqZ3HHWRUmpGTiV-1" edge="1">
          <mxGeometry width="50" height="50" relative="1" as="geometry">
            <mxPoint x="1080" y="410" as="sourcePoint" />
            <mxPoint x="280" y="420" as="targetPoint" />
            <Array as="points">
              <mxPoint x="1170" y="370" />
              <mxPoint x="1170" y="520" />
              <mxPoint x="200" y="530" />
              <mxPoint x="200" y="415" />
            </Array>
          </mxGeometry>
        </mxCell>
        <mxCell id="kkJzJGfQuStPFGFwi3gG-43" value="Write Data" style="edgeLabel;html=1;align=center;verticalAlign=middle;resizable=0;points=[];" parent="kkJzJGfQuStPFGFwi3gG-42" vertex="1" connectable="0">
          <mxGeometry x="0.9566" relative="1" as="geometry">
            <mxPoint as="offset" />
          </mxGeometry>
        </mxCell>
        <mxCell id="kkJzJGfQuStPFGFwi3gG-47" value="" style="endArrow=classic;html=1;rounded=0;exitX=0;exitY=0.5;exitDx=0;exitDy=0;entryX=0;entryY=0.5;entryDx=0;entryDy=0;" parent="1" source="kkJzJGfQuStPFGFwi3gG-21" target="Z9YpBMqZ3HHWRUmpGTiV-7" edge="1">
          <mxGeometry width="50" height="50" relative="1" as="geometry">
            <mxPoint x="380" y="340" as="sourcePoint" />
            <mxPoint x="260" y="590" as="targetPoint" />
            <Array as="points">
              <mxPoint x="140" y="180" />
              <mxPoint x="140" y="480" />
              <mxPoint x="140" y="590" />
              <mxPoint x="320" y="590" />
            </Array>
          </mxGeometry>
        </mxCell>
        <mxCell id="kkJzJGfQuStPFGFwi3gG-48" value="Imm Value" style="edgeLabel;html=1;align=center;verticalAlign=middle;resizable=0;points=[];" parent="kkJzJGfQuStPFGFwi3gG-47" vertex="1" connectable="0">
          <mxGeometry x="0.4411" y="4" relative="1" as="geometry">
            <mxPoint as="offset" />
          </mxGeometry>
        </mxCell>
        <mxCell id="wUC3MZ6UGow6dpSmKzoz-1" value="MUX" style="shape=trapezoid;perimeter=trapezoidPerimeter;whiteSpace=wrap;html=1;fixedSize=1;rotation=90;" parent="1" vertex="1">
          <mxGeometry x="775" y="460" width="90" height="30" as="geometry" />
        </mxCell>
        <mxCell id="wUC3MZ6UGow6dpSmKzoz-2" value="" style="endArrow=classic;html=1;rounded=0;entryX=0.126;entryY=0.943;entryDx=0;entryDy=0;entryPerimeter=0;" parent="1" target="wUC3MZ6UGow6dpSmKzoz-1" edge="1">
          <mxGeometry width="50" height="50" relative="1" as="geometry">
            <mxPoint x="720" y="310" as="sourcePoint" />
            <mxPoint x="800" y="440" as="targetPoint" />
            <Array as="points">
              <mxPoint x="720" y="440" />
            </Array>
          </mxGeometry>
        </mxCell>
        <mxCell id="wUC3MZ6UGow6dpSmKzoz-3" value="" style="endArrow=classic;html=1;rounded=0;entryX=0.458;entryY=0.98;entryDx=0;entryDy=0;entryPerimeter=0;" parent="1" target="wUC3MZ6UGow6dpSmKzoz-1" edge="1">
          <mxGeometry width="50" height="50" relative="1" as="geometry">
            <mxPoint x="710" y="-100" as="sourcePoint" />
            <mxPoint x="800" y="470" as="targetPoint" />
            <Array as="points">
              <mxPoint x="710" y="470" />
            </Array>
          </mxGeometry>
        </mxCell>
        <mxCell id="wUC3MZ6UGow6dpSmKzoz-4" value="" style="endArrow=none;html=1;rounded=0;exitX=0;exitY=1;exitDx=0;exitDy=0;entryX=0.089;entryY=1.01;entryDx=0;entryDy=0;entryPerimeter=0;" parent="1" source="Z9YpBMqZ3HHWRUmpGTiV-6" target="wUC3MZ6UGow6dpSmKzoz-14" edge="1">
          <mxGeometry width="50" height="50" relative="1" as="geometry">
            <mxPoint x="780" y="270" as="sourcePoint" />
            <mxPoint x="720" y="230" as="targetPoint" />
            <Array as="points">
              <mxPoint x="655" y="210" />
            </Array>
          </mxGeometry>
        </mxCell>
        <mxCell id="wUC3MZ6UGow6dpSmKzoz-15" value="neg" style="edgeLabel;html=1;align=center;verticalAlign=middle;resizable=0;points=[];" parent="wUC3MZ6UGow6dpSmKzoz-4" vertex="1" connectable="0">
          <mxGeometry x="0.3959" y="1" relative="1" as="geometry">
            <mxPoint as="offset" />
          </mxGeometry>
        </mxCell>
        <mxCell id="wUC3MZ6UGow6dpSmKzoz-5" value="" style="endArrow=none;html=1;rounded=0;exitX=0;exitY=0.75;exitDx=0;exitDy=0;entryX=0.25;entryY=1;entryDx=0;entryDy=0;" parent="1" source="Z9YpBMqZ3HHWRUmpGTiV-6" target="wUC3MZ6UGow6dpSmKzoz-14" edge="1">
          <mxGeometry width="50" height="50" relative="1" as="geometry">
            <mxPoint x="780" y="270" as="sourcePoint" />
            <mxPoint x="720" y="240" as="targetPoint" />
            <Array as="points">
              <mxPoint x="670" y="220" />
            </Array>
          </mxGeometry>
        </mxCell>
        <mxCell id="wUC3MZ6UGow6dpSmKzoz-16" value="ovf" style="edgeLabel;html=1;align=center;verticalAlign=middle;resizable=0;points=[];" parent="wUC3MZ6UGow6dpSmKzoz-5" vertex="1" connectable="0">
          <mxGeometry x="0.3718" relative="1" as="geometry">
            <mxPoint as="offset" />
          </mxGeometry>
        </mxCell>
        <mxCell id="wUC3MZ6UGow6dpSmKzoz-10" value="" style="endArrow=none;html=1;rounded=0;exitX=0;exitY=0.3;exitDx=0;exitDy=0;exitPerimeter=0;" parent="1" source="Z9YpBMqZ3HHWRUmpGTiV-6" edge="1">
          <mxGeometry width="50" height="50" relative="1" as="geometry">
            <mxPoint x="780" y="270" as="sourcePoint" />
            <mxPoint x="690" y="260" as="targetPoint" />
            <Array as="points">
              <mxPoint x="690" y="260" />
              <mxPoint x="730" y="260" />
            </Array>
          </mxGeometry>
        </mxCell>
        <mxCell id="wUC3MZ6UGow6dpSmKzoz-20" value="zero" style="edgeLabel;html=1;align=center;verticalAlign=middle;resizable=0;points=[];" parent="wUC3MZ6UGow6dpSmKzoz-10" vertex="1" connectable="0">
          <mxGeometry x="0.5127" relative="1" as="geometry">
            <mxPoint as="offset" />
          </mxGeometry>
        </mxCell>
        <mxCell id="wUC3MZ6UGow6dpSmKzoz-11" value="OR" style="shape=dataStorage;whiteSpace=wrap;html=1;fixedSize=1;rotation=90;" parent="1" vertex="1">
          <mxGeometry x="930" y="-55" width="45" height="40" as="geometry" />
        </mxCell>
        <mxCell id="wUC3MZ6UGow6dpSmKzoz-13" value="" style="endArrow=classic;html=1;rounded=0;exitX=0;exitY=0.5;exitDx=0;exitDy=0;entryX=1;entryY=0.25;entryDx=0;entryDy=0;" parent="1" source="wUC3MZ6UGow6dpSmKzoz-11" target="kkJzJGfQuStPFGFwi3gG-11" edge="1">
          <mxGeometry width="50" height="50" relative="1" as="geometry">
            <mxPoint x="720" y="270" as="sourcePoint" />
            <mxPoint x="770" y="220" as="targetPoint" />
          </mxGeometry>
        </mxCell>
        <mxCell id="wUC3MZ6UGow6dpSmKzoz-14" value="MUX" style="shape=trapezoid;perimeter=trapezoidPerimeter;whiteSpace=wrap;html=1;fixedSize=1;rotation=90;" parent="1" vertex="1">
          <mxGeometry x="705" y="230" width="70" height="20" as="geometry" />
        </mxCell>
        <mxCell id="wUC3MZ6UGow6dpSmKzoz-18" value="" style="endArrow=none;html=1;rounded=0;exitX=0;exitY=0.5;exitDx=0;exitDy=0;" parent="1" source="Z9YpBMqZ3HHWRUmpGTiV-6" edge="1">
          <mxGeometry width="50" height="50" relative="1" as="geometry">
            <mxPoint x="710" y="360" as="sourcePoint" />
            <mxPoint x="680" y="240" as="targetPoint" />
            <Array as="points">
              <mxPoint x="680" y="250" />
              <mxPoint x="680" y="240" />
              <mxPoint x="730" y="240" />
            </Array>
          </mxGeometry>
        </mxCell>
        <mxCell id="wUC3MZ6UGow6dpSmKzoz-19" value="carry" style="edgeLabel;html=1;align=center;verticalAlign=middle;resizable=0;points=[];" parent="wUC3MZ6UGow6dpSmKzoz-18" vertex="1" connectable="0">
          <mxGeometry x="0.7867" relative="1" as="geometry">
            <mxPoint as="offset" />
          </mxGeometry>
        </mxCell>
        <mxCell id="wUC3MZ6UGow6dpSmKzoz-21" value="" style="endArrow=classic;html=1;rounded=0;exitX=0.443;exitY=-0.04;exitDx=0;exitDy=0;exitPerimeter=0;entryX=0.653;entryY=1.007;entryDx=0;entryDy=0;entryPerimeter=0;" parent="1" source="wUC3MZ6UGow6dpSmKzoz-14" target="wUC3MZ6UGow6dpSmKzoz-1" edge="1">
          <mxGeometry width="50" height="50" relative="1" as="geometry">
            <mxPoint x="710" y="360" as="sourcePoint" />
            <mxPoint x="760" y="490" as="targetPoint" />
            <Array as="points">
              <mxPoint x="760" y="236" />
              <mxPoint x="760" y="489" />
            </Array>
          </mxGeometry>
        </mxCell>
        <mxCell id="wUC3MZ6UGow6dpSmKzoz-23" value="" style="endArrow=classic;html=1;rounded=0;entryX=0.893;entryY=1.007;entryDx=0;entryDy=0;entryPerimeter=0;" parent="1" target="wUC3MZ6UGow6dpSmKzoz-1" edge="1">
          <mxGeometry width="50" height="50" relative="1" as="geometry">
            <mxPoint x="770" y="-160" as="sourcePoint" />
            <mxPoint x="770" y="510.4" as="targetPoint" />
            <Array as="points">
              <mxPoint x="770" y="110" />
              <mxPoint x="770" y="510" />
            </Array>
          </mxGeometry>
        </mxCell>
        <mxCell id="kkJzJGfQuStPFGFwi3gG-19" value="AND" style="shape=or;whiteSpace=wrap;html=1;rotation=-90;" parent="1" vertex="1">
          <mxGeometry x="930" y="5" width="20" height="40" as="geometry" />
        </mxCell>
        <mxCell id="wUC3MZ6UGow6dpSmKzoz-25" value="MUX" style="shape=trapezoid;perimeter=trapezoidPerimeter;whiteSpace=wrap;html=1;fixedSize=1;rotation=90;" parent="1" vertex="1">
          <mxGeometry x="440" y="5" width="80" height="20" as="geometry" />
        </mxCell>
        <mxCell id="wUC3MZ6UGow6dpSmKzoz-26" value="" style="endArrow=classic;html=1;rounded=0;exitX=0.5;exitY=0;exitDx=0;exitDy=0;entryX=0;entryY=0.5;entryDx=0;entryDy=0;" parent="1" source="wUC3MZ6UGow6dpSmKzoz-25" target="kkJzJGfQuStPFGFwi3gG-17" edge="1">
          <mxGeometry width="50" height="50" relative="1" as="geometry">
            <mxPoint x="180" y="370" as="sourcePoint" />
            <mxPoint x="230" y="320" as="targetPoint" />
          </mxGeometry>
        </mxCell>
        <mxCell id="wUC3MZ6UGow6dpSmKzoz-28" value="" style="endArrow=classic;html=1;rounded=0;exitX=1;exitY=0.5;exitDx=0;exitDy=0;entryX=0.7;entryY=1.064;entryDx=0;entryDy=0;entryPerimeter=0;" parent="1" source="Z9YpBMqZ3HHWRUmpGTiV-7" target="wUC3MZ6UGow6dpSmKzoz-25" edge="1">
          <mxGeometry width="50" height="50" relative="1" as="geometry">
            <mxPoint x="180" y="370" as="sourcePoint" />
            <mxPoint x="460" y="120" as="targetPoint" />
            <Array as="points">
              <mxPoint x="450" y="30" />
            </Array>
          </mxGeometry>
        </mxCell>
        <mxCell id="wUC3MZ6UGow6dpSmKzoz-29" value="" style="endArrow=classic;html=1;rounded=0;entryX=0.685;entryY=1.047;entryDx=0;entryDy=0;entryPerimeter=0;" parent="1" target="kkJzJGfQuStPFGFwi3gG-28" edge="1">
          <mxGeometry width="50" height="50" relative="1" as="geometry">
            <mxPoint x="480" y="420" as="sourcePoint" />
            <mxPoint x="230" y="320" as="targetPoint" />
          </mxGeometry>
        </mxCell>
        <mxCell id="wUC3MZ6UGow6dpSmKzoz-30" value="" style="endArrow=classic;html=1;rounded=0;exitX=0.5;exitY=0;exitDx=0;exitDy=0;entryX=0.816;entryY=0.989;entryDx=0;entryDy=0;entryPerimeter=0;" parent="1" source="kkJzJGfQuStPFGFwi3gG-28" target="Z9YpBMqZ3HHWRUmpGTiV-6" edge="1">
          <mxGeometry width="50" height="50" relative="1" as="geometry">
            <mxPoint x="180" y="370" as="sourcePoint" />
            <mxPoint x="640" y="370" as="targetPoint" />
            <Array as="points">
              <mxPoint x="640" y="402" />
              <mxPoint x="640" y="380" />
              <mxPoint x="640" y="370" />
              <mxPoint x="650" y="370" />
            </Array>
          </mxGeometry>
        </mxCell>
        <mxCell id="wUC3MZ6UGow6dpSmKzoz-31" value="" style="endArrow=classic;html=1;rounded=0;entryX=0.336;entryY=1.007;entryDx=0;entryDy=0;entryPerimeter=0;" parent="1" target="wUC3MZ6UGow6dpSmKzoz-25" edge="1">
          <mxGeometry width="50" height="50" relative="1" as="geometry">
            <mxPoint x="810" y="320" as="sourcePoint" />
            <mxPoint x="440" y="120" as="targetPoint" />
            <Array as="points">
              <mxPoint x="810" y="190" />
              <mxPoint x="410" y="190" />
              <mxPoint x="410" />
            </Array>
          </mxGeometry>
        </mxCell>
        <mxCell id="wUC3MZ6UGow6dpSmKzoz-33" value="MUX" style="shape=trapezoid;perimeter=trapezoidPerimeter;whiteSpace=wrap;html=1;fixedSize=1;rotation=90;" parent="1" vertex="1">
          <mxGeometry x="425" y="-80" width="70" height="15.09" as="geometry" />
        </mxCell>
        <mxCell id="wUC3MZ6UGow6dpSmKzoz-34" value="" style="endArrow=classic;html=1;rounded=0;entryX=0.75;entryY=1;entryDx=0;entryDy=0;" parent="1" target="wUC3MZ6UGow6dpSmKzoz-33" edge="1">
          <mxGeometry width="50" height="50" relative="1" as="geometry">
            <mxPoint x="360" y="-55" as="sourcePoint" />
            <mxPoint x="210" y="190" as="targetPoint" />
          </mxGeometry>
        </mxCell>
        <mxCell id="wUC3MZ6UGow6dpSmKzoz-35" value="Zero" style="edgeLabel;html=1;align=center;verticalAlign=middle;resizable=0;points=[];" parent="wUC3MZ6UGow6dpSmKzoz-34" vertex="1" connectable="0">
          <mxGeometry x="-0.5384" relative="1" as="geometry">
            <mxPoint as="offset" />
          </mxGeometry>
        </mxCell>
        <mxCell id="wUC3MZ6UGow6dpSmKzoz-38" value="" style="endArrow=none;html=1;rounded=0;entryX=0.25;entryY=1;entryDx=0;entryDy=0;" parent="1" target="wUC3MZ6UGow6dpSmKzoz-39" edge="1">
          <mxGeometry width="50" height="50" relative="1" as="geometry">
            <mxPoint x="760" y="240" as="sourcePoint" />
            <mxPoint x="840" y="220" as="targetPoint" />
            <Array as="points">
              <mxPoint x="850" y="240" />
            </Array>
          </mxGeometry>
        </mxCell>
        <mxCell id="wUC3MZ6UGow6dpSmKzoz-39" value="MUX" style="shape=trapezoid;perimeter=trapezoidPerimeter;whiteSpace=wrap;html=1;fixedSize=1;" parent="1" vertex="1">
          <mxGeometry x="830" y="190" width="70" height="20" as="geometry" />
        </mxCell>
        <mxCell id="wUC3MZ6UGow6dpSmKzoz-41" value="" style="triangle;whiteSpace=wrap;html=1;rotation=-89;" parent="1" vertex="1">
          <mxGeometry x="880" y="210" width="10" height="30" as="geometry" />
        </mxCell>
        <mxCell id="wUC3MZ6UGow6dpSmKzoz-42" value="" style="endArrow=none;html=1;rounded=0;entryX=0;entryY=0.5;entryDx=0;entryDy=0;" parent="1" target="wUC3MZ6UGow6dpSmKzoz-41" edge="1">
          <mxGeometry width="50" height="50" relative="1" as="geometry">
            <mxPoint x="850" y="240" as="sourcePoint" />
            <mxPoint x="880" y="240" as="targetPoint" />
            <Array as="points">
              <mxPoint x="885" y="240" />
            </Array>
          </mxGeometry>
        </mxCell>
        <mxCell id="wUC3MZ6UGow6dpSmKzoz-43" value="" style="endArrow=none;html=1;rounded=0;exitX=1;exitY=0.5;exitDx=0;exitDy=0;entryX=0.75;entryY=1;entryDx=0;entryDy=0;" parent="1" source="wUC3MZ6UGow6dpSmKzoz-41" target="wUC3MZ6UGow6dpSmKzoz-39" edge="1">
          <mxGeometry width="50" height="50" relative="1" as="geometry">
            <mxPoint x="700" y="230" as="sourcePoint" />
            <mxPoint x="750" y="180" as="targetPoint" />
          </mxGeometry>
        </mxCell>
        <mxCell id="wUC3MZ6UGow6dpSmKzoz-44" value="" style="endArrow=classic;html=1;rounded=0;exitX=0.5;exitY=0;exitDx=0;exitDy=0;entryX=0;entryY=0.75;entryDx=0;entryDy=0;entryPerimeter=0;" parent="1" source="wUC3MZ6UGow6dpSmKzoz-39" target="kkJzJGfQuStPFGFwi3gG-19" edge="1">
          <mxGeometry width="50" height="50" relative="1" as="geometry">
            <mxPoint x="700" y="230" as="sourcePoint" />
            <mxPoint x="750" y="180" as="targetPoint" />
            <Array as="points">
              <mxPoint x="870" y="80" />
              <mxPoint x="950" y="80" />
            </Array>
          </mxGeometry>
        </mxCell>
        <mxCell id="wUC3MZ6UGow6dpSmKzoz-45" value="" style="endArrow=classic;html=1;rounded=0;exitX=0.5;exitY=0;exitDx=0;exitDy=0;entryX=0.2;entryY=1;entryDx=0;entryDy=0;entryPerimeter=0;" parent="1" source="wUC3MZ6UGow6dpSmKzoz-1" target="Z9YpBMqZ3HHWRUmpGTiV-13" edge="1">
          <mxGeometry width="50" height="50" relative="1" as="geometry">
            <mxPoint x="730" y="300" as="sourcePoint" />
            <mxPoint x="1040" y="400" as="targetPoint" />
            <Array as="points">
              <mxPoint x="1040" y="470" />
              <mxPoint x="1040" y="400" />
            </Array>
          </mxGeometry>
        </mxCell>
        <mxCell id="wUC3MZ6UGow6dpSmKzoz-47" value="" style="endArrow=classic;html=1;rounded=0;entryX=0.4;entryY=1;entryDx=0;entryDy=0;entryPerimeter=0;" parent="1" target="kkJzJGfQuStPFGFwi3gG-14" edge="1">
          <mxGeometry width="50" height="50" relative="1" as="geometry">
            <mxPoint x="470" y="-70" as="sourcePoint" />
            <mxPoint x="520" y="-100" as="targetPoint" />
          </mxGeometry>
        </mxCell>
        <mxCell id="wUC3MZ6UGow6dpSmKzoz-48" value="" style="endArrow=classic;html=1;rounded=0;exitX=0.5;exitY=0;exitDx=0;exitDy=0;entryX=0;entryY=0.25;entryDx=0;entryDy=0;entryPerimeter=0;" parent="1" source="kkJzJGfQuStPFGFwi3gG-21" target="kkJzJGfQuStPFGFwi3gG-19" edge="1">
          <mxGeometry width="50" height="50" relative="1" as="geometry">
            <mxPoint x="610" y="120" as="sourcePoint" />
            <mxPoint x="930" y="60" as="targetPoint" />
            <Array as="points">
              <mxPoint x="240" y="70" />
              <mxPoint x="930" y="70" />
            </Array>
          </mxGeometry>
        </mxCell>
        <mxCell id="wUC3MZ6UGow6dpSmKzoz-49" value="Branch" style="edgeLabel;html=1;align=center;verticalAlign=middle;resizable=0;points=[];" parent="wUC3MZ6UGow6dpSmKzoz-48" vertex="1" connectable="0">
          <mxGeometry x="-0.0693" y="1" relative="1" as="geometry">
            <mxPoint as="offset" />
          </mxGeometry>
        </mxCell>
        <mxCell id="wUC3MZ6UGow6dpSmKzoz-50" value="" style="endArrow=classic;html=1;rounded=0;entryX=1;entryY=0.25;entryDx=0;entryDy=0;exitX=0.679;exitY=0.039;exitDx=0;exitDy=0;exitPerimeter=0;" parent="1" source="kkJzJGfQuStPFGFwi3gG-21" target="wUC3MZ6UGow6dpSmKzoz-11" edge="1">
          <mxGeometry width="50" height="50" relative="1" as="geometry">
            <mxPoint x="260" y="120" as="sourcePoint" />
            <mxPoint x="660" y="70" as="targetPoint" />
            <Array as="points">
              <mxPoint x="260" y="80" />
              <mxPoint x="963" y="90" />
            </Array>
          </mxGeometry>
        </mxCell>
        <mxCell id="wUC3MZ6UGow6dpSmKzoz-51" value="Jump" style="edgeLabel;html=1;align=center;verticalAlign=middle;resizable=0;points=[];" parent="wUC3MZ6UGow6dpSmKzoz-50" vertex="1" connectable="0">
          <mxGeometry x="0.0035" relative="1" as="geometry">
            <mxPoint as="offset" />
          </mxGeometry>
        </mxCell>
        <mxCell id="wUC3MZ6UGow6dpSmKzoz-52" value="" style="endArrow=classic;html=1;rounded=0;exitX=1;exitY=0;exitDx=0;exitDy=0;entryX=0;entryY=0.5;entryDx=0;entryDy=0;" parent="1" source="kkJzJGfQuStPFGFwi3gG-21" target="wUC3MZ6UGow6dpSmKzoz-1" edge="1">
          <mxGeometry width="50" height="50" relative="1" as="geometry">
            <mxPoint x="610" y="290" as="sourcePoint" />
            <mxPoint x="830" y="150" as="targetPoint" />
            <Array as="points">
              <mxPoint x="820" y="145" />
            </Array>
          </mxGeometry>
        </mxCell>
        <mxCell id="wUC3MZ6UGow6dpSmKzoz-53" value="AndLink" style="edgeLabel;html=1;align=center;verticalAlign=middle;resizable=0;points=[];" parent="wUC3MZ6UGow6dpSmKzoz-52" vertex="1" connectable="0">
          <mxGeometry x="-0.308" y="1" relative="1" as="geometry">
            <mxPoint as="offset" />
          </mxGeometry>
        </mxCell>
        <mxCell id="wUC3MZ6UGow6dpSmKzoz-54" value="" style="endArrow=classic;html=1;rounded=0;exitX=0.976;exitY=0.719;exitDx=0;exitDy=0;exitPerimeter=0;entryX=0;entryY=0.25;entryDx=0;entryDy=0;" parent="1" source="kkJzJGfQuStPFGFwi3gG-21" target="kkJzJGfQuStPFGFwi3gG-28" edge="1">
          <mxGeometry width="50" height="50" relative="1" as="geometry">
            <mxPoint x="610" y="290" as="sourcePoint" />
            <mxPoint x="630" y="210" as="targetPoint" />
            <Array as="points">
              <mxPoint x="610" y="200" />
            </Array>
          </mxGeometry>
        </mxCell>
        <mxCell id="wUC3MZ6UGow6dpSmKzoz-55" value="ALUsrc" style="edgeLabel;html=1;align=center;verticalAlign=middle;resizable=0;points=[];" parent="wUC3MZ6UGow6dpSmKzoz-54" vertex="1" connectable="0">
          <mxGeometry x="0.1242" y="-2" relative="1" as="geometry">
            <mxPoint as="offset" />
          </mxGeometry>
        </mxCell>
        <mxCell id="wUC3MZ6UGow6dpSmKzoz-56" value="" style="endArrow=classic;html=1;rounded=0;exitX=0.5;exitY=1;exitDx=0;exitDy=0;entryX=0.5;entryY=1;entryDx=0;entryDy=0;" parent="1" source="kkJzJGfQuStPFGFwi3gG-21" target="Z9YpBMqZ3HHWRUmpGTiV-7" edge="1">
          <mxGeometry width="50" height="50" relative="1" as="geometry">
            <mxPoint x="370" y="400" as="sourcePoint" />
            <mxPoint x="430" y="640" as="targetPoint" />
            <Array as="points">
              <mxPoint x="240" y="630" />
              <mxPoint x="435" y="640" />
            </Array>
          </mxGeometry>
        </mxCell>
        <mxCell id="wUC3MZ6UGow6dpSmKzoz-57" value="Imm Type" style="edgeLabel;html=1;align=center;verticalAlign=middle;resizable=0;points=[];" parent="wUC3MZ6UGow6dpSmKzoz-56" vertex="1" connectable="0">
          <mxGeometry x="0.5306" relative="1" as="geometry">
            <mxPoint as="offset" />
          </mxGeometry>
        </mxCell>
        <mxCell id="wUC3MZ6UGow6dpSmKzoz-58" value="" style="endArrow=classic;html=1;rounded=0;exitX=0.964;exitY=0.296;exitDx=0;exitDy=0;exitPerimeter=0;entryX=0.094;entryY=0.464;entryDx=0;entryDy=0;entryPerimeter=0;" parent="1" source="kkJzJGfQuStPFGFwi3gG-21" target="wUC3MZ6UGow6dpSmKzoz-14" edge="1">
          <mxGeometry width="50" height="50" relative="1" as="geometry">
            <mxPoint x="310" y="160" as="sourcePoint" />
            <mxPoint x="760" y="160" as="targetPoint" />
            <Array as="points">
              <mxPoint x="740" y="160" />
            </Array>
          </mxGeometry>
        </mxCell>
        <mxCell id="wUC3MZ6UGow6dpSmKzoz-59" value="Flag_mux" style="edgeLabel;html=1;align=center;verticalAlign=middle;resizable=0;points=[];" parent="wUC3MZ6UGow6dpSmKzoz-58" vertex="1" connectable="0">
          <mxGeometry x="0.1426" y="-1" relative="1" as="geometry">
            <mxPoint as="offset" />
          </mxGeometry>
        </mxCell>
        <mxCell id="wUC3MZ6UGow6dpSmKzoz-60" value="" style="endArrow=classic;html=1;rounded=0;entryX=1;entryY=0.25;entryDx=0;entryDy=0;" parent="1" source="kkJzJGfQuStPFGFwi3gG-21" target="wUC3MZ6UGow6dpSmKzoz-39" edge="1">
          <mxGeometry width="50" height="50" relative="1" as="geometry">
            <mxPoint x="290" y="120" as="sourcePoint" />
            <mxPoint x="910" y="190" as="targetPoint" />
            <Array as="points">
              <mxPoint x="210" y="110" />
              <mxPoint x="910" y="120" />
              <mxPoint x="910" y="197" />
            </Array>
          </mxGeometry>
        </mxCell>
        <mxCell id="wUC3MZ6UGow6dpSmKzoz-61" value="Flag_or_NFlag" style="edgeLabel;html=1;align=center;verticalAlign=middle;resizable=0;points=[];" parent="wUC3MZ6UGow6dpSmKzoz-60" vertex="1" connectable="0">
          <mxGeometry x="-0.031" y="-2" relative="1" as="geometry">
            <mxPoint as="offset" />
          </mxGeometry>
        </mxCell>
        <mxCell id="wUC3MZ6UGow6dpSmKzoz-62" value="" style="endArrow=classic;html=1;rounded=0;entryX=0;entryY=0.5;entryDx=0;entryDy=0;" parent="1" source="kkJzJGfQuStPFGFwi3gG-21" target="wUC3MZ6UGow6dpSmKzoz-33" edge="1">
          <mxGeometry width="50" height="50" relative="1" as="geometry">
            <mxPoint x="420" y="120" as="sourcePoint" />
            <mxPoint x="470" y="-130" as="targetPoint" />
            <Array as="points">
              <mxPoint x="180" y="100" />
              <mxPoint x="180" y="-130" />
              <mxPoint x="460" y="-130" />
            </Array>
          </mxGeometry>
        </mxCell>
        <mxCell id="wUC3MZ6UGow6dpSmKzoz-63" value="" style="endArrow=classic;html=1;rounded=0;entryX=0.491;entryY=-0.021;entryDx=0;entryDy=0;entryPerimeter=0;" parent="1" source="kkJzJGfQuStPFGFwi3gG-21" target="Z9YpBMqZ3HHWRUmpGTiV-4" edge="1">
          <mxGeometry width="50" height="50" relative="1" as="geometry">
            <mxPoint x="60" y="150" as="sourcePoint" />
            <mxPoint x="961.1428571428571" y="110" as="targetPoint" />
            <Array as="points">
              <mxPoint x="290" y="100" />
              <mxPoint x="940" y="110" />
            </Array>
          </mxGeometry>
        </mxCell>
        <mxCell id="wUC3MZ6UGow6dpSmKzoz-64" value="MemWrite" style="edgeLabel;html=1;align=center;verticalAlign=middle;resizable=0;points=[];" parent="wUC3MZ6UGow6dpSmKzoz-63" vertex="1" connectable="0">
          <mxGeometry x="0.1762" y="-1" relative="1" as="geometry">
            <mxPoint as="offset" />
          </mxGeometry>
        </mxCell>
        <mxCell id="wUC3MZ6UGow6dpSmKzoz-65" value="" style="endArrow=classic;html=1;rounded=0;entryX=1;entryY=0.75;entryDx=0;entryDy=0;" parent="1" source="kkJzJGfQuStPFGFwi3gG-21" target="Z9YpBMqZ3HHWRUmpGTiV-6" edge="1">
          <mxGeometry width="50" height="50" relative="1" as="geometry">
            <mxPoint x="150" y="220" as="sourcePoint" />
            <mxPoint x="660" y="480" as="targetPoint" />
            <Array as="points">
              <mxPoint x="150" y="220" />
              <mxPoint x="150" y="500" />
              <mxPoint x="670" y="500" />
            </Array>
          </mxGeometry>
        </mxCell>
        <mxCell id="2a0tODCSeCe3z6vQcSRw-22" value="ALU Control" style="edgeLabel;html=1;align=center;verticalAlign=middle;resizable=0;points=[];" vertex="1" connectable="0" parent="wUC3MZ6UGow6dpSmKzoz-65">
          <mxGeometry x="0.0067" y="1" relative="1" as="geometry">
            <mxPoint as="offset" />
          </mxGeometry>
        </mxCell>
        <mxCell id="wUC3MZ6UGow6dpSmKzoz-66" value="" style="endArrow=classic;html=1;rounded=0;exitX=0.203;exitY=0.026;exitDx=0;exitDy=0;exitPerimeter=0;" parent="1" source="Z9YpBMqZ3HHWRUmpGTiV-24" target="kkJzJGfQuStPFGFwi3gG-21" edge="1">
          <mxGeometry width="50" height="50" relative="1" as="geometry">
            <mxPoint x="10" y="280" as="sourcePoint" />
            <mxPoint x="10" y="160" as="targetPoint" />
            <Array as="points">
              <mxPoint x="60" y="140" />
            </Array>
          </mxGeometry>
        </mxCell>
        <mxCell id="wUC3MZ6UGow6dpSmKzoz-69" value="instr 6-0" style="edgeLabel;html=1;align=center;verticalAlign=middle;resizable=0;points=[];" parent="wUC3MZ6UGow6dpSmKzoz-66" vertex="1" connectable="0">
          <mxGeometry x="-0.4124" y="2" relative="1" as="geometry">
            <mxPoint as="offset" />
          </mxGeometry>
        </mxCell>
        <mxCell id="wUC3MZ6UGow6dpSmKzoz-67" value="" style="endArrow=classic;html=1;rounded=0;exitX=0.405;exitY=0;exitDx=0;exitDy=0;exitPerimeter=0;" parent="1" source="Z9YpBMqZ3HHWRUmpGTiV-24" target="kkJzJGfQuStPFGFwi3gG-21" edge="1">
          <mxGeometry width="50" height="50" relative="1" as="geometry">
            <mxPoint x="240" y="310" as="sourcePoint" />
            <mxPoint x="100" y="120" as="targetPoint" />
            <Array as="points">
              <mxPoint x="90" y="110" />
            </Array>
          </mxGeometry>
        </mxCell>
        <mxCell id="wUC3MZ6UGow6dpSmKzoz-70" value="instr 14-12" style="edgeLabel;html=1;align=center;verticalAlign=middle;resizable=0;points=[];" parent="wUC3MZ6UGow6dpSmKzoz-67" vertex="1" connectable="0">
          <mxGeometry x="-0.2129" y="2" relative="1" as="geometry">
            <mxPoint as="offset" />
          </mxGeometry>
        </mxCell>
        <mxCell id="wUC3MZ6UGow6dpSmKzoz-68" value="" style="endArrow=classic;html=1;rounded=0;exitX=0.5;exitY=0;exitDx=0;exitDy=0;" parent="1" source="Z9YpBMqZ3HHWRUmpGTiV-24" target="kkJzJGfQuStPFGFwi3gG-21" edge="1">
          <mxGeometry width="50" height="50" relative="1" as="geometry">
            <mxPoint x="240" y="310" as="sourcePoint" />
            <mxPoint x="100" y="170" as="targetPoint" />
            <Array as="points">
              <mxPoint x="100" y="200" />
            </Array>
          </mxGeometry>
        </mxCell>
        <mxCell id="wUC3MZ6UGow6dpSmKzoz-71" value="instr 31-25" style="edgeLabel;html=1;align=center;verticalAlign=middle;resizable=0;points=[];" parent="wUC3MZ6UGow6dpSmKzoz-68" vertex="1" connectable="0">
          <mxGeometry x="-0.3312" y="-1" relative="1" as="geometry">
            <mxPoint as="offset" />
          </mxGeometry>
        </mxCell>
        <mxCell id="2a0tODCSeCe3z6vQcSRw-1" value="" style="shape=flexArrow;endArrow=classic;startArrow=classic;html=1;rounded=0;" edge="1" parent="1">
          <mxGeometry width="100" height="100" relative="1" as="geometry">
            <mxPoint x="695" y="600" as="sourcePoint" />
            <mxPoint x="830" y="600" as="targetPoint" />
          </mxGeometry>
        </mxCell>
        <mxCell id="2a0tODCSeCe3z6vQcSRw-2" value="Barrel Shifter" style="edgeLabel;html=1;align=center;verticalAlign=middle;resizable=0;points=[];" vertex="1" connectable="0" parent="2a0tODCSeCe3z6vQcSRw-1">
          <mxGeometry x="-0.1852" y="-4" relative="1" as="geometry">
            <mxPoint as="offset" />
          </mxGeometry>
        </mxCell>
        <mxCell id="2a0tODCSeCe3z6vQcSRw-3" value="MUX" style="shape=trapezoid;perimeter=trapezoidPerimeter;whiteSpace=wrap;html=1;fixedSize=1;rotation=90;" vertex="1" parent="1">
          <mxGeometry x="712.5" y="315" width="65" height="20" as="geometry" />
        </mxCell>
        <mxCell id="2a0tODCSeCe3z6vQcSRw-6" value="" style="endArrow=none;html=1;rounded=0;" edge="1" parent="1">
          <mxGeometry width="50" height="50" relative="1" as="geometry">
            <mxPoint x="740" y="590" as="sourcePoint" />
            <mxPoint x="730" y="350" as="targetPoint" />
          </mxGeometry>
        </mxCell>
        <mxCell id="2a0tODCSeCe3z6vQcSRw-8" value="" style="endArrow=classic;html=1;rounded=0;entryX=0.75;entryY=1;entryDx=0;entryDy=0;" edge="1" parent="1" target="2a0tODCSeCe3z6vQcSRw-3">
          <mxGeometry width="50" height="50" relative="1" as="geometry">
            <mxPoint x="730" y="350" as="sourcePoint" />
            <mxPoint x="780" y="300" as="targetPoint" />
          </mxGeometry>
        </mxCell>
        <mxCell id="2a0tODCSeCe3z6vQcSRw-10" value="" style="endArrow=classic;html=1;rounded=0;entryX=0;entryY=0.5;entryDx=0;entryDy=0;" edge="1" parent="1" target="2a0tODCSeCe3z6vQcSRw-3">
          <mxGeometry width="50" height="50" relative="1" as="geometry">
            <mxPoint x="290" y="188" as="sourcePoint" />
            <mxPoint x="1100" y="340" as="targetPoint" />
            <Array as="points">
              <mxPoint x="430" y="260" />
              <mxPoint x="740" y="280" />
            </Array>
          </mxGeometry>
        </mxCell>
        <mxCell id="2a0tODCSeCe3z6vQcSRw-11" value="Shift" style="edgeLabel;html=1;align=center;verticalAlign=middle;resizable=0;points=[];" vertex="1" connectable="0" parent="2a0tODCSeCe3z6vQcSRw-10">
          <mxGeometry x="0.5885" y="1" relative="1" as="geometry">
            <mxPoint x="-82" y="-1" as="offset" />
          </mxGeometry>
        </mxCell>
        <mxCell id="2a0tODCSeCe3z6vQcSRw-12" value="" style="endArrow=classic;html=1;rounded=0;" edge="1" parent="1">
          <mxGeometry width="50" height="50" relative="1" as="geometry">
            <mxPoint x="510" y="315" as="sourcePoint" />
            <mxPoint x="710" y="590" as="targetPoint" />
            <Array as="points">
              <mxPoint x="520" y="590" />
              <mxPoint x="670" y="590" />
            </Array>
          </mxGeometry>
        </mxCell>
        <mxCell id="2a0tODCSeCe3z6vQcSRw-13" value="Read Data 1" style="edgeLabel;html=1;align=center;verticalAlign=middle;resizable=0;points=[];" vertex="1" connectable="0" parent="2a0tODCSeCe3z6vQcSRw-12">
          <mxGeometry x="0.5885" y="1" relative="1" as="geometry">
            <mxPoint as="offset" />
          </mxGeometry>
        </mxCell>
        <mxCell id="2a0tODCSeCe3z6vQcSRw-14" value="" style="endArrow=none;html=1;rounded=0;" edge="1" parent="1">
          <mxGeometry width="50" height="50" relative="1" as="geometry">
            <mxPoint x="720" y="560" as="sourcePoint" />
            <mxPoint x="720" y="440" as="targetPoint" />
          </mxGeometry>
        </mxCell>
        <mxCell id="2a0tODCSeCe3z6vQcSRw-15" value="" style="endArrow=none;html=1;rounded=0;" edge="1" parent="1">
          <mxGeometry width="50" height="50" relative="1" as="geometry">
            <mxPoint x="680" y="560" as="sourcePoint" />
            <mxPoint x="720" y="560" as="targetPoint" />
          </mxGeometry>
        </mxCell>
        <mxCell id="2a0tODCSeCe3z6vQcSRw-16" value="" style="endArrow=none;html=1;rounded=0;" edge="1" parent="1">
          <mxGeometry width="50" height="50" relative="1" as="geometry">
            <mxPoint x="680" y="600" as="sourcePoint" />
            <mxPoint x="680" y="560" as="targetPoint" />
          </mxGeometry>
        </mxCell>
        <mxCell id="2a0tODCSeCe3z6vQcSRw-17" value="" style="endArrow=none;html=1;rounded=0;strokeColor=default;" edge="1" parent="1">
          <mxGeometry width="50" height="50" relative="1" as="geometry">
            <mxPoint x="700" y="600" as="sourcePoint" />
            <mxPoint x="680" y="600" as="targetPoint" />
          </mxGeometry>
        </mxCell>
        <mxCell id="2a0tODCSeCe3z6vQcSRw-19" value="" style="endArrow=classic;html=1;rounded=0;" edge="1" parent="1">
          <mxGeometry width="50" height="50" relative="1" as="geometry">
            <mxPoint x="490" y="540" as="sourcePoint" />
            <mxPoint x="710" y="610" as="targetPoint" />
            <Array as="points">
              <mxPoint x="550" y="540" />
              <mxPoint x="550" y="620" />
              <mxPoint x="660" y="630" />
            </Array>
          </mxGeometry>
        </mxCell>
        <mxCell id="2a0tODCSeCe3z6vQcSRw-21" value="Shift Amount" style="edgeLabel;html=1;align=center;verticalAlign=middle;resizable=0;points=[];" vertex="1" connectable="0" parent="2a0tODCSeCe3z6vQcSRw-19">
          <mxGeometry x="0.6013" y="3" relative="1" as="geometry">
            <mxPoint as="offset" />
          </mxGeometry>
        </mxCell>
        <mxCell id="2a0tODCSeCe3z6vQcSRw-23" value="" style="endArrow=classic;html=1;rounded=0;" edge="1" parent="1">
          <mxGeometry width="50" height="50" relative="1" as="geometry">
            <mxPoint x="200" y="530" as="sourcePoint" />
            <mxPoint x="730" y="610" as="targetPoint" />
            <Array as="points">
              <mxPoint x="200" y="660" />
              <mxPoint x="730" y="660" />
            </Array>
          </mxGeometry>
        </mxCell>
        <mxCell id="2a0tODCSeCe3z6vQcSRw-24" value="ALU Control" style="edgeLabel;html=1;align=center;verticalAlign=middle;resizable=0;points=[];" vertex="1" connectable="0" parent="2a0tODCSeCe3z6vQcSRw-23">
          <mxGeometry x="0.1718" y="-2" relative="1" as="geometry">
            <mxPoint as="offset" />
          </mxGeometry>
        </mxCell>
      </root>
    </mxGraphModel>
  </diagram>
</mxfile>
